<?xml version="1.0" encoding="UTF-8"?>
<!-- Generator: visioncortex VTracer 0.6.4 -->
<svg version="1.1" xmlns="http://www.w3.org/2000/svg" width="1536" height="1024">
<path d="M0 0 C506.88 0 1013.76 0 1536 0 C1536 337.92 1536 675.84 1536 1024 C1029.12 1024 522.24 1024 0 1024 C0 686.08 0 348.16 0 0 Z " fill="#FAFAFA" transform="translate(0,0)"/>
<path d="M0 0 C5.82 4.73 9.3 10.88 10.62 18.25 C11.53 28.96 10.13 36.26 3.25 44.56 C0.29 47.75 -2.56 50.17 -6.38 52.25 C-7.37 52.25 -8.36 52.25 -9.38 52.25 C-9.36 52.97 -9.35 53.69 -9.34 54.44 C-9.25 65.56 -9.76 76.65 -10.23 87.76 C-10.52 94.7 -10.76 101.64 -11.01 108.57 C-11.22 114.39 -11.46 120.2 -11.78 126.01 C-11.89 128.21 -11.98 130.42 -12.05 132.62 C-12.14 135.17 -12.27 137.71 -12.44 140.25 C-12.52 143.6 -12.48 146.09 -11.38 149.25 C-8.07 152.34 -4.36 154.18 -0.38 156.25 C1.89 157.96 3.81 159.79 5.88 161.75 C7.27 163.06 7.27 163.06 8.7 164.41 C9.68 165.35 10.65 166.3 11.62 167.25 C12.47 168.06 12.47 168.06 13.34 168.88 C41.8 196.5 52.71 239.35 62.1 276.43 C68.24 300.62 75.07 325.16 84.62 348.25 C85.09 349.38 85.56 350.52 86.04 351.69 C87.22 354.55 88.42 357.4 89.62 360.25 C89.19 354.34 88.67 348.47 87.84 342.59 C86.2 330.5 86.37 318.43 86.62 306.25 C86.64 304.96 86.66 303.67 86.68 302.34 C88.14 265.56 100.23 228.45 117.62 196.25 C117.97 195.6 118.31 194.96 118.67 194.29 C124.28 183.77 130.64 173.91 137.62 164.25 C138.03 163.68 138.44 163.11 138.86 162.53 C145.71 153.07 153.51 144.62 161.62 136.25 C162.57 135.27 162.57 135.27 163.54 134.27 C171.18 126.39 178.93 118.97 187.62 112.25 C189.06 111.09 189.06 111.09 190.52 109.91 C241.64 69.22 306.06 51.34 370.62 52.25 C371.4 52.26 372.18 52.26 372.97 52.27 C430.17 53.07 489.63 79.73 531.36 118.17 C533.42 120.06 535.51 121.88 537.62 123.69 C546.17 131.17 553.58 139.36 560.62 148.25 C561.29 149.06 561.96 149.87 562.65 150.71 C599.84 196.13 619.37 253.78 619.02 312.27 C619 315.45 619.02 318.62 619.04 321.8 C619.06 346.48 615.15 370.81 607.3 394.22 C606.6 396.32 605.94 398.43 605.29 400.54 C595.79 430.78 580.29 458.52 560.62 483.25 C559.93 484.14 559.24 485.03 558.52 485.94 C553.91 491.74 548.99 497.2 543.94 502.62 C543.31 503.3 542.68 503.98 542.03 504.68 C539.22 507.67 536.41 510.51 533.23 513.1 C530.59 514.98 530.59 514.98 529.62 517.25 C530.32 517.37 531.02 517.49 531.73 517.62 C534.88 518.31 537.82 519.27 540.87 520.32 C542.09 520.74 543.31 521.16 544.56 521.59 C545.2 521.81 545.85 522.03 546.51 522.26 C564.52 528.41 582.69 533.14 601.25 537.38 C627.84 543.46 627.84 543.46 635.62 551.25 C636.3 555.81 636.11 559.31 634 563.44 C594.88 602.13 473.13 586.85 421.33 586.73 C411.8 586.71 402.28 586.71 392.75 586.71 C375.73 586.71 358.72 586.69 341.71 586.66 C325.31 586.63 308.9 586.62 292.5 586.62 C290.98 586.62 290.98 586.62 289.42 586.62 C288.41 586.62 287.4 586.62 286.35 586.62 C267.48 586.62 248.61 586.61 229.74 586.59 C223.14 586.59 216.54 586.58 209.94 586.58 C201.89 586.58 193.84 586.57 185.79 586.56 C181.71 586.55 177.62 586.54 173.54 586.54 C106.22 586.57 106.22 586.57 77.62 578.25 C76.36 577.94 75.09 577.62 73.78 577.3 C30.24 566.49 -9.74 540.78 -38.38 506.25 C-38.79 505.74 -39.21 505.24 -39.65 504.72 C-71.66 465.93 -93.01 421.35 -111 374.72 C-111.45 373.58 -111.91 372.43 -112.38 371.25 C-112.62 370.61 -112.87 369.98 -113.13 369.32 C-114.97 364.76 -116.54 362.98 -120.81 360.5 C-144.4 345.71 -160.73 320.35 -167.19 293.44 C-167.62 291.38 -168.01 289.32 -168.38 287.25 C-168.62 286.03 -168.62 286.03 -168.88 284.79 C-170.56 275.98 -170.77 267.3 -170.75 258.38 C-170.75 257.61 -170.75 256.84 -170.75 256.04 C-170.62 220.94 -159.47 188.53 -134.38 163.25 C-133.47 162.62 -132.57 161.99 -131.63 161.34 C-129.14 159.44 -129.14 159.44 -128.82 156.53 C-128.88 154.87 -128.88 154.87 -128.94 153.19 C-128.98 151.87 -129.03 150.55 -129.07 149.2 C-129.17 147.55 -129.27 145.9 -129.38 144.25 C-129.44 143.21 -129.5 142.17 -129.56 141.1 C-130.24 129.96 -130.97 118.92 -132.91 107.91 C-133.5 104.56 -133.92 101.2 -134.31 97.81 C-135.4 88.76 -136.71 79.74 -138.02 70.72 C-138.54 67.12 -139.05 63.53 -139.56 59.94 C-139.8 58.27 -139.8 58.27 -140.04 56.57 C-140.15 55.81 -140.26 55.04 -140.38 54.25 C-141.94 54.11 -141.94 54.11 -143.53 53.96 C-150.52 52.67 -156.12 48.23 -160.38 42.6 C-165.55 34.1 -166.48 26.03 -165.38 16.25 C-162.83 7.4 -156.7 0.98 -148.94 -3.69 C-141.5 -7.12 -132.51 -6.99 -124.63 -5.09 C-115.56 -1.47 -109.19 5.39 -105.38 14.25 C-103.15 21.12 -103.26 29.57 -106.12 36.19 C-106.84 37.56 -107.59 38.92 -108.38 40.25 C-108.73 40.86 -109.09 41.47 -109.46 42.1 C-111.93 46.03 -111.93 46.03 -114.38 47.25 C-113.11 54.42 -111.73 61.56 -110.18 68.68 C-109.96 69.66 -109.75 70.63 -109.53 71.64 C-106.48 85.5 -103.05 99.28 -99.65 113.06 C-98.78 116.63 -97.91 120.19 -97.04 123.76 C-96.77 124.84 -96.51 125.92 -96.23 127.04 C-95.98 128.05 -95.74 129.05 -95.49 130.09 C-95.27 130.97 -95.06 131.85 -94.83 132.75 C-94.36 135.31 -94.29 137.66 -94.38 140.25 C-93.72 140.05 -93.07 139.84 -92.4 139.63 C-91.09 139.22 -91.09 139.22 -89.75 138.81 C-88.89 138.55 -88.03 138.28 -87.15 138 C-81.91 136.58 -76.94 136.12 -71.52 136.12 C-70.24 136.12 -68.96 136.11 -67.64 136.11 C-66.98 136.12 -66.32 136.12 -65.64 136.12 C-63.62 136.13 -61.59 136.12 -59.57 136.11 C-58.29 136.11 -57.02 136.12 -55.7 136.12 C-54.54 136.12 -53.37 136.12 -52.17 136.12 C-49.38 136.25 -49.38 136.25 -47.38 137.25 C-47.29 136.62 -47.21 135.98 -47.13 135.33 C-46.76 132.39 -46.38 129.44 -46 126.5 C-45.87 125.5 -45.75 124.51 -45.62 123.48 C-44.97 118.49 -44.27 113.52 -43.4 108.56 C-42.07 100.77 -41.24 92.92 -40.38 85.06 C-40.13 82.83 -39.88 80.6 -39.62 78.37 C-39.46 76.89 -39.3 75.41 -39.14 73.94 C-38.72 70.1 -38.25 66.29 -37.7 62.47 C-37.59 61.69 -37.49 60.92 -37.38 60.12 C-37.17 58.64 -36.95 57.16 -36.72 55.69 C-36.16 51.73 -36.16 51.73 -37.71 48.16 C-39.38 46.82 -39.38 46.82 -41.35 45.7 C-45.9 42.44 -48.68 36.01 -50.02 30.67 C-51.46 20.89 -49.26 13.22 -43.75 5 C-32.57 -8.95 -14.13 -9.78 0 0 Z " fill="#232527" transform="translate(503.375,202.75)"/>
<path d="M0 0 C2 2 2 2 2 3 C3.06 2.76 3.06 2.76 4.14 2.51 C7.06 1.99 9.74 1.87 12.7 1.87 C13.77 1.87 14.83 1.86 15.92 1.86 C17.02 1.87 18.12 1.87 19.25 1.88 C20.36 1.87 21.48 1.87 22.62 1.86 C23.68 1.86 24.74 1.87 25.83 1.87 C26.8 1.87 27.76 1.87 28.76 1.87 C31 2 31 2 32 3 C34.12 3 36.24 3 38.37 2.97 C42.61 3.02 46.79 3.51 51 4 C51 4.66 51 5.32 51 6 C51.33 6 51.66 6 52 6 C52 5.67 52 5.34 52 5 C53.65 5 55.3 5 57 5 C57 5.99 57 6.98 57 8 C57.66 8 58.32 8 59 8 C59 7.34 59 6.68 59 6 C67.18 6.36 74.4 8.43 82.12 11.06 C83.31 11.46 84.5 11.86 85.72 12.28 C97.55 16.37 108.17 21.77 119 28 C118.67 28.99 118.34 29.98 118 31 C118.66 31 119.32 31 120 31 C120.33 30.34 120.66 29.68 121 29 C136.6 39.08 151.27 50.39 164 64 C164 64.66 164 65.32 164 66 C164.99 66.33 165.98 66.66 167 67 C169 70.37 169 70.37 169 72 C169.66 72 170.32 72 171 72 C172.3 73.47 172.3 73.47 173.75 75.5 C174.28 76.23 174.81 76.97 175.36 77.73 C175.9 78.48 176.44 79.23 177 80 C177.98 81.29 178.96 82.59 179.94 83.88 C180.96 85.25 181.98 86.62 183 88 C183.82 89.07 183.82 89.07 184.65 90.16 C212.67 128.15 220.56 181.29 214 227 C213.4 230.9 212.75 234.8 212.06 238.69 C211.83 240.03 211.83 240.03 211.58 241.4 C210.51 247.13 208.97 252.52 207 258 C206.59 259.2 206.17 260.4 205.75 261.64 C196.91 286 184.95 307.41 168 327 C167.48 327.6 166.96 328.2 166.43 328.82 C159.85 336.35 152.92 342.86 145 349 C144.24 349.64 143.47 350.28 142.69 350.94 C130.36 361.25 116.55 369.28 102 376 C101.33 376.31 100.65 376.63 99.96 376.95 C65.7 392.82 29.2 396.88 -8 392 C-8.76 391.9 -9.53 391.81 -10.31 391.71 C-26.32 389.61 -41.49 385.11 -56 378 C-57.41 377.39 -58.83 376.79 -60.25 376.19 C-78.56 367.99 -94.49 356.6 -110 344 C-110.57 343.55 -111.14 343.1 -111.73 342.64 C-113.19 341.47 -114.6 340.24 -116 339 C-116 338.34 -116 337.68 -116 337 C-116.66 337 -117.32 337 -118 337 C-119.35 335.35 -120.69 333.68 -122 332 C-122.66 331.67 -123.32 331.34 -124 331 C-124 330.34 -124 329.68 -124 329 C-124.66 329 -125.32 329 -126 329 C-128.92 325.89 -131.41 322.39 -134 319 C-134.43 318.45 -134.85 317.91 -135.29 317.34 C-142.5 308.06 -148.48 298.4 -153.95 288 C-154.84 286.3 -155.76 284.61 -156.68 282.93 C-165.89 265.5 -171.4 246.77 -174.75 227.44 C-174.88 226.7 -175.01 225.96 -175.14 225.2 C-175.86 220.75 -176.02 216.52 -176 212 C-176.33 211.01 -176.66 210.02 -177 209 C-177.63 198.05 -176.88 187.26 -175.62 176.38 C-175.5 175.29 -175.37 174.2 -175.24 173.07 C-174.49 166.94 -173.43 161.01 -172 155 C-171.86 154.15 -171.71 153.31 -171.56 152.44 C-170.73 148.82 -169.35 145.46 -168 142 C-167.34 142 -166.68 142 -166 142 C-165.67 140.35 -165.34 138.7 -165 137 C-160.25 136 -160.25 136 -158 136 C-157.01 135.67 -156.02 135.34 -155 135 C-154.11 129.06 -154.03 123.93 -155 118 C-155.66 118 -156.32 118 -157 118 C-157.33 118.66 -157.66 119.32 -158 120 C-158.66 119.34 -159.32 118.68 -160 118 C-158.71 115.39 -157.42 112.79 -156.12 110.19 C-155.76 109.45 -155.4 108.71 -155.02 107.95 C-154.67 107.24 -154.31 106.53 -153.95 105.79 C-153.62 105.14 -153.3 104.48 -152.96 103.81 C-152 102 -152 102 -150 99 C-149.34 99 -148.68 99 -148 99 C-147.92 98.28 -147.84 97.56 -147.75 96.81 C-146.84 93.41 -145.4 91.55 -143 89 C-142.34 89 -141.68 89 -141 89 C-140.57 87.82 -140.57 87.82 -140.12 86.62 C-139 84 -139 84 -137 82 C-136.34 82 -135.68 82 -135 82 C-134.67 81.34 -134.34 80.68 -134 80 C-133.07 80.17 -132.14 80.33 -131.19 80.5 C-128.04 81.08 -128.04 81.08 -125 81 C-124.67 81.33 -124.34 81.66 -124 82 C-124 80.02 -124 78.04 -124 76 C-122.02 75.5 -122.02 75.5 -120 75 C-120 75.99 -120 76.98 -120 78 C-119.32 77.83 -118.64 77.67 -117.94 77.5 C-113.94 76.82 -109.72 76.14 -106 78 C-105.67 77.34 -105.34 76.68 -105 76 C-104.67 76.99 -104.34 77.98 -104 79 C-102.84 77.95 -102.84 77.95 -102 76 C-98.42 73 -98.42 73 -96 73 C-95.67 72.34 -95.34 71.68 -95 71 C-93.51 71.5 -93.51 71.5 -92 72 C-92 71.34 -92 70.68 -92 70 C-92.66 69.67 -93.32 69.34 -94 69 C-93.53 68.63 -93.05 68.26 -92.56 67.88 C-90.48 65.38 -90.47 63.17 -90 60 C-89.01 59.01 -89.01 59.01 -88 58 C-88.19 57.38 -88.37 56.76 -88.56 56.12 C-89 54 -89 54 -87.56 51.81 C-87.05 51.21 -86.53 50.62 -86 50 C-86 49.67 -86 49.34 -86 49 C-86.66 48.34 -87.32 47.68 -88 47 C-87.01 47 -86.02 47 -85 47 C-85 46.34 -85 45.68 -85 45 C-87.31 44.67 -89.62 44.34 -92 44 C-92 43.34 -92 42.68 -92 42 C-93.32 42.33 -94.64 42.66 -96 43 C-94.69 41.5 -94.69 41.5 -93 40 C-92.01 40 -91.02 40 -90 40 C-90 39.34 -90 38.68 -90 38 C-90.66 37.67 -91.32 37.34 -92 37 C-91.44 36.64 -90.89 36.27 -90.31 35.9 C-85.06 32.44 -79.98 28.83 -75 25 C-74.34 25.33 -73.68 25.66 -73 26 C-71.04 25.19 -71.04 25.19 -69 24 C-68.38 23.68 -67.75 23.37 -67.11 23.04 C-66.47 22.71 -65.84 22.39 -65.18 22.05 C-63.74 21.33 -62.31 20.6 -60.88 19.88 C-59.78 19.32 -59.78 19.32 -58.67 18.75 C-53.23 16 -53.23 16 -51 16 C-49.49 15.43 -47.99 14.82 -46.5 14.19 C-41.4 12.12 -36.31 10.45 -31 9 C-29.79 8.67 -28.58 8.34 -27.34 8 C-18.27 5.58 -9.33 4.02 0 3 C0 2.01 0 1.02 0 0 Z " fill="#191D20" transform="translate(839,323)"/>
<path d="M0 0 C3.3 0.33 6.6 0.66 10 1 C10.03 2.75 10.05 4.5 10.06 6.25 C10.07 7.22 10.09 8.2 10.1 9.2 C10.02 12.26 9.81 15.23 9.53 18.28 C8.8 26.61 8.63 34.95 8.44 43.31 C8.42 44.17 8.4 45.03 8.38 45.91 C8.23 52.28 8.11 58.64 8 65 C7.98 65.91 7.97 66.81 7.95 67.75 C7.87 73.07 7.8 78.4 7.77 83.73 C7.76 85.39 7.74 87.05 7.72 88.71 C7.59 98.27 8.02 106.8 11 116 C11.66 112.7 12.32 109.4 13 106 C41.57 120.6 57.62 152.16 67.17 181.42 C68.88 186.75 70.58 192.09 72.25 197.44 C72.59 198.53 72.93 199.62 73.29 200.74 C75.03 206.42 76.48 212.02 77.56 217.86 C78.14 220.67 79.07 223.29 80 226 C80.45 227.67 80.88 229.34 81.3 231.01 C95.95 288.34 117.9 346.32 152 395 C152.74 396.08 153.49 397.16 154.25 398.27 C160.27 406.92 166.82 415.09 173.54 423.22 C174.77 424.72 175.97 426.25 177.16 427.79 C187.67 441.29 200.42 453.62 214 464 C215.08 464.87 216.17 465.74 217.25 466.62 C230.05 476.95 243.75 485.79 258 494 C259.13 494.66 260.27 495.31 261.43 495.99 C280.5 506.73 302.44 515.92 324 520 C324 520.33 324 520.66 324 521 C306.23 521.02 288.46 521.04 270.69 521.05 C262.44 521.06 254.18 521.06 245.93 521.08 C238.72 521.09 231.51 521.09 224.3 521.09 C220.5 521.1 216.69 521.1 212.89 521.11 C164.05 521.2 164.05 521.2 140.81 518.75 C139.58 518.62 138.34 518.49 137.07 518.36 C86.87 512.76 45.31 492.67 9 458 C8.33 457.37 7.65 456.73 6.96 456.08 C2.7 451.98 -0.99 447.47 -4.69 442.87 C-6.16 441.04 -7.64 439.24 -9.15 437.45 C-26.62 416.66 -39.86 393.18 -52 369 C-52.42 368.16 -52.85 367.32 -53.29 366.45 C-59.1 354.89 -64.16 343.04 -69.06 331.06 C-69.35 330.36 -69.64 329.65 -69.94 328.93 C-70.77 326.9 -71.59 324.88 -72.41 322.85 C-73.12 321.08 -73.12 321.08 -73.85 319.29 C-74.94 316.17 -75.57 313.27 -76 310 C-75.01 310 -74.02 310 -73 310 C-73.51 309.66 -74.03 309.33 -74.55 308.98 C-104.74 289.07 -123.87 265.76 -131.24 230.06 C-131.5 228.71 -131.75 227.35 -132 226 C-132.29 224.44 -132.29 224.44 -132.59 222.86 C-133.22 216.87 -133.18 210.89 -133.19 204.88 C-133.21 203.01 -133.21 203.01 -133.22 201.11 C-133.27 170.68 -122.83 139.99 -101.44 117.94 C-82.46 99.17 -59.05 91.69 -32.77 91.76 C-28.58 91.81 -25.09 91.98 -21 93 C-20.5 100.43 -20.5 100.43 -20 108 C-19.34 108 -18.68 108 -18 108 C-17.54 106.67 -17.08 105.33 -16.62 104 C-16.37 103.26 -16.11 102.51 -15.85 101.75 C-13.39 93.81 -12.18 85.91 -11.06 77.69 C-9.91 69.38 -8.73 61.09 -7.38 52.81 C-6.24 45.79 -5.33 38.77 -4.54 31.7 C-3.87 25.84 -3.16 19.98 -2.44 14.12 C-2.31 13.07 -2.18 12.02 -2.05 10.93 C-1.93 9.95 -1.81 8.96 -1.68 7.95 C-1.58 7.06 -1.47 6.18 -1.36 5.27 C-1 3 -1 3 0 0 Z " fill="#F1DCBB" transform="translate(476,256)"/>
<path d="M0 0 C2.03 1.13 3.97 2.35 5.91 3.61 C6.67 4.09 7.43 4.57 8.21 5.06 C17.01 10.66 25.67 16.49 34.33 22.3 C41.61 27.19 48.94 32.01 56.29 36.8 C64.98 42.47 73.65 48.17 82.29 53.92 C83.27 54.58 84.26 55.23 85.27 55.91 C87.89 57.65 90.5 59.41 93.1 61.17 C93.81 61.65 94.52 62.13 95.25 62.63 C98.18 64.65 100.11 66.18 102.1 69.17 C102.44 71.91 102.44 71.91 102.47 75.05 C102.5 76.08 102.53 77.1 102.56 78.16 C101.86 82.71 99.36 85.2 95.77 87.96 C94.5 88.77 94.5 88.77 93.2 89.59 C92.26 90.2 91.31 90.81 90.33 91.44 C88.82 92.39 88.82 92.39 87.29 93.36 C85.2 94.7 83.11 96.04 81.02 97.38 C79.49 98.36 79.49 98.36 77.94 99.35 C74.3 101.69 70.69 104.07 67.1 106.48 C66.22 107.07 66.22 107.07 65.33 107.67 C64.17 108.44 63.01 109.22 61.86 109.99 C58.71 112.1 55.56 114.2 52.41 116.3 C51.16 117.13 49.9 117.97 48.65 118.81 C46.44 120.28 44.23 121.75 42.02 123.23 C40.57 124.19 40.57 124.19 39.1 125.17 C35.95 127.27 32.8 129.37 29.65 131.47 C29.05 131.87 28.45 132.27 27.83 132.68 C26.59 133.51 25.36 134.33 24.12 135.16 C20.48 137.58 16.84 140.01 13.21 142.44 C12.39 142.99 11.57 143.54 10.73 144.1 C9.12 145.18 7.52 146.25 5.91 147.33 C5.18 147.81 4.46 148.3 3.7 148.8 C3.06 149.24 2.41 149.67 1.74 150.12 C-2.81 153.04 -7.63 152.86 -12.9 152.17 C-16.37 149.62 -18.24 147.09 -19.9 143.17 C-20.36 139.91 -19.94 137.29 -18.9 134.17 C-13.13 127.47 -5.12 122.76 2.22 117.98 C4.62 116.41 7 114.84 9.39 113.26 C10.32 112.65 10.32 112.65 11.27 112.03 C18.74 107.11 26.14 102.08 33.54 97.05 C36.06 95.34 38.58 93.63 41.1 91.91 C41.69 91.51 42.28 91.11 42.89 90.7 C47.77 87.39 52.68 84.12 57.6 80.87 C59.2 79.78 60.78 78.64 62.31 77.45 C64.1 76.17 64.1 76.17 66.1 76.17 C63.26 72.95 59.67 70.8 56.1 68.48 C55.4 68.02 54.7 67.57 53.98 67.09 C52.47 66.11 50.97 65.13 49.46 64.14 C45.47 61.55 41.49 58.94 37.51 56.34 C36.71 55.82 35.91 55.29 35.09 54.75 C26.75 49.3 18.46 43.76 10.17 38.21 C5.4 35.02 0.61 31.84 -4.24 28.76 C-5.04 28.25 -5.83 27.74 -6.66 27.22 C-8.09 26.31 -9.53 25.41 -10.97 24.52 C-15.1 21.91 -18.16 19.8 -19.52 14.99 C-19.94 11.27 -20.19 8.86 -18.71 5.36 C-13.28 -1.2 -8.27 -3.6 0 0 Z " fill="#BCDC7F" transform="translate(770.90087890625,434.82763671875)"/>
<path d="M0 0 C1.59 0.69 1.59 0.69 3.21 1.39 C5.46 2.29 7.71 3.18 9.96 4.06 C11.05 4.5 12.14 4.94 13.26 5.4 C17.03 6.88 20.82 8.11 24.71 9.21 C25.37 9.39 26.03 9.58 26.7 9.77 C28.89 10.39 31.08 10.98 33.27 11.58 C34.18 11.83 35.08 12.08 36.01 12.34 C46.61 15.27 57.22 18.11 67.92 20.67 C69.38 21.02 70.85 21.37 72.31 21.73 C75.16 22.42 78.01 23.08 80.86 23.74 C82.18 24.06 83.49 24.37 84.8 24.69 C85.95 24.96 87.11 25.23 88.29 25.5 C91.53 26.67 93.07 27.98 95.27 30.58 C89.64 33.61 84.37 35.64 78.15 37.08 C77.25 37.29 76.34 37.5 75.42 37.71 C49.48 43.42 22.72 44.99 -3.73 46.58 C-4.6 46.63 -5.48 46.69 -6.39 46.74 C-40.5 48.78 -74.57 48.82 -108.73 48.58 C-106.13 46.85 -104.66 46.15 -101.76 45.35 C-100.97 45.13 -100.18 44.91 -99.37 44.68 C-98.52 44.44 -97.67 44.2 -96.79 43.96 C-80.36 39.17 -64.81 32.63 -49.73 24.58 C-48.75 24.07 -48.75 24.07 -47.76 23.55 C-38.24 18.51 -29.39 12.78 -20.66 6.48 C-20.01 6.01 -19.35 5.55 -18.68 5.07 C-16.67 3.6 -16.67 3.6 -14.87 1.75 C-9.61 -3.16 -6.52 -2.57 0 0 Z " fill="#B79A77" transform="translate(1032.726318359375,728.41845703125)"/>
<path d="M0 0 C1.22 -0.01 1.22 -0.01 2.46 -0.02 C5.15 -0.03 7.84 -0.04 10.54 -0.04 C12.4 -0.05 14.27 -0.05 16.14 -0.06 C20.06 -0.07 23.98 -0.08 27.91 -0.08 C32.93 -0.08 37.95 -0.11 42.98 -0.14 C46.84 -0.16 50.7 -0.16 54.56 -0.16 C56.41 -0.17 58.27 -0.17 60.12 -0.19 C62.71 -0.2 65.3 -0.2 67.89 -0.2 C68.66 -0.2 69.42 -0.21 70.21 -0.22 C74.71 -0.19 77.56 0.4 81.14 3.16 C84.01 6.62 84.68 9.67 84.49 14.17 C83.74 18.45 81.36 21.22 78 23.8 C74.35 25.54 71.1 25.59 67.14 25.57 C66.35 25.57 65.56 25.58 64.74 25.59 C62.14 25.6 59.53 25.6 56.93 25.59 C55.11 25.6 53.29 25.6 51.48 25.61 C47.67 25.62 43.87 25.62 40.06 25.61 C35.19 25.6 30.32 25.62 25.45 25.65 C21.7 25.66 17.95 25.66 14.19 25.66 C12.4 25.66 10.6 25.66 8.81 25.68 C6.3 25.69 3.78 25.68 1.27 25.66 C0.53 25.67 -0.2 25.68 -0.96 25.69 C-6.05 25.62 -8.95 24.38 -12.86 21.16 C-15.83 16.7 -15.61 12.39 -14.86 7.16 C-11.37 0.46 -6.93 0.01 0 0 Z " fill="#BCDC7E" transform="translate(892.858642578125,583.8388671875)"/>
<path d="M0 0 C5.57 1.11 11 2.55 16.44 4.19 C30.86 8.49 45.4 12.46 60.05 15.93 C61.05 16.17 61.05 16.17 62.07 16.41 C65.32 17.18 68.57 17.94 71.83 18.69 C73 18.96 74.17 19.24 75.38 19.52 C76.41 19.76 77.45 20 78.52 20.24 C81 21 81 21 83 23 C81.99 23.17 80.99 23.34 79.95 23.52 C78.53 23.76 77.11 24 75.69 24.25 C74.92 24.38 74.15 24.52 73.36 24.65 C68.65 25.48 63.99 26.43 59.33 27.49 C-12.68 43.66 -12.68 43.66 -32 34 C-34.33 33.96 -36.67 33.96 -39 34 C-36.22 29.99 -33.59 26.33 -30 23 C-29.34 23.33 -28.68 23.66 -28 24 C-27.34 22.68 -26.68 21.36 -26 20 C-25.34 20 -24.68 20 -24 20 C-23.67 19.01 -23.34 18.02 -23 17 C-17.11 13.07 -10.54 10.62 -4 8 C-3.01 7.6 -2.02 7.2 -1 6.79 C1.33 5.86 3.66 4.93 6 4 C4.02 3.01 2.04 2.02 0 1 C0 0.67 0 0.34 0 0 Z " fill="#E0C5A1" transform="translate(1040,733)"/>
<path d="M0 0 C5.74 3.43 10.85 8.47 12.54 15.09 C13.23 21.39 12.62 27.48 9.54 33.09 C4.98 38.38 0.25 41.59 -6.77 42.34 C-12.87 42.65 -17.48 41.73 -22.46 38.09 C-28.28 32.75 -30.48 27.61 -30.83 19.72 C-30.7 14.37 -29.8 10.34 -26.46 6.09 C-19.08 -0.71 -9.86 -3.64 0 0 Z " fill="#F8E9D1" transform="translate(377.45703125,206.90625)"/>
<path d="M0 0 C4.45 3.07 7.61 6.74 9.69 11.75 C10.63 20.47 9.72 27.01 4.31 34 C-0.58 39.13 -4.71 40.48 -11.62 41 C-18.82 40.51 -22.85 38.63 -27.75 33.25 C-32.5 27.68 -32.66 23.21 -32.59 16.05 C-32.07 9.88 -29.83 6.34 -25.62 1.94 C-17.33 -3.54 -8.87 -5.19 0 0 Z " fill="#F8E9D1" transform="translate(495.3125,208.25)"/>
<path d="M0 0 C2.05 8.02 4.04 16.04 5.81 24.12 C7.66 32.56 9.6 40.97 11.56 49.38 C11.86 50.63 12.15 51.89 12.45 53.19 C14.02 59.93 15.64 66.65 17.35 73.36 C18.38 77.54 19.37 81.74 20 86 C20.17 86.82 20.34 87.64 20.51 88.48 C19.89 91.54 19.31 91.78 16.79 93.46 C15.41 94.26 14.02 95.05 12.62 95.81 C11.93 96.22 11.23 96.63 10.51 97.04 C5.34 100 5.34 100 3 100 C2.9 98.98 2.9 98.98 2.8 97.94 C0.17 70.65 -2.87 43.28 -7.83 16.3 C-8.77 11.11 -9.17 6.28 -9 1 C-5.85 0.3 -3.27 0 0 0 Z " fill="#F3E3C8" transform="translate(381,256)"/>
<path d="M0 0 C4.73 2.65 7.98 6.35 9.56 11.54 C11.13 20.28 10.98 28.29 6.41 36.07 C4.02 39.33 2.08 40.67 -1.92 41.3 C-5.63 41.54 -7.57 41.26 -10.81 39.31 C-17.15 32.61 -17.42 25.24 -17.35 16.34 C-16.7 10.12 -14.29 5.05 -9.62 0.88 C-6.05 -0.32 -3.76 -0.58 0 0 Z " fill="#181C1F" transform="translate(468,430)"/>
<path d="M0 0 C4.16 1.26 5.81 2.68 8.5 6.06 C10.97 10.7 10.87 15.24 10.88 20.38 C10.9 21.19 10.92 22.01 10.95 22.85 C10.98 29.63 9.29 34.98 4.69 40.06 C1.28 41.62 -0.8 41.7 -4.5 41.06 C-8.46 37.84 -11.01 33.92 -12.5 29.06 C-13.26 20.2 -13.91 11.52 -8.5 4.06 C-5.56 0.8 -4.42 0.08 0 0 Z " fill="#1A1E21" transform="translate(373.5,429.9375)"/>
<path d="M0 0 C3.62 0.44 5.5 2.06 8.12 4.5 C12.42 8.45 14.75 9.36 20.55 9.28 C26 8.66 29.86 6.25 33.5 2.25 C34 1.51 34.49 0.76 35 0 C38.88 0.88 38.88 0.88 40 2 C40.08 5.88 39.89 7.94 37.36 10.95 C30.73 16.98 25.01 18.55 16.11 18.38 C9.49 17.58 3.98 14.73 -0.19 9.5 C-2 6 -2 6 -1.88 3.12 C-1 1 -1 1 0 0 Z " fill="#191C1E" transform="translate(398,492)"/>
<path d="M0 0 C0.66 0 1.32 0 2 0 C3.46 7.06 3.46 7.06 1.44 11.19 C-3.43 16.81 -7.8 20.43 -15.32 21.25 C-21.42 21.54 -26.04 20.64 -31 17 C-34.37 13.84 -37.46 10.76 -38 6 C-37.34 5.34 -36.68 4.68 -36 4 C-34.48 5.18 -34.48 5.18 -32.94 6.38 C-27.27 10.37 -21.37 11.59 -14.5 11.45 C-7.97 10.28 -3.84 5.02 0 0 Z " fill="#DBC4A3" transform="translate(386,228)"/>
<path d="M0 0 C0.66 0 1.32 0 2 0 C3.32 3 2.93 4.2 1.88 7.38 C-0.75 12.93 -4.35 17.32 -10 20 C-17.05 22.04 -23.53 21.29 -30 18 C-32.84 15.82 -33.81 14.71 -34.75 11.25 C-34.83 10.51 -34.92 9.76 -35 9 C-34.01 8.34 -33.02 7.68 -32 7 C-30.12 7.74 -28.24 8.48 -26.38 9.25 C-20.66 11.05 -14.89 10.53 -9.19 8.94 C-5.72 6.83 -3.69 4.63 -1.26 1.43 C-0.64 0.72 -0.64 0.72 0 0 Z " fill="#DAC2A1" transform="translate(502,228)"/>
<path d="M0 0 C0.62 0.24 1.23 0.48 1.87 0.73 C16.08 6.25 30.27 11.09 45 15 C45 15.33 45 15.66 45 16 C26.9 16.02 8.8 16.04 -9.29 16.05 C-17.7 16.06 -26.1 16.06 -34.51 16.08 C-41.83 16.09 -49.16 16.09 -56.49 16.09 C-60.37 16.1 -64.24 16.1 -68.12 16.11 C-71.78 16.11 -75.43 16.11 -79.09 16.11 C-81.06 16.11 -83.03 16.12 -85 16.12 C-91.42 16.12 -97.63 15.86 -104 15 C-103.67 14.34 -103.34 13.68 -103 13 C-101.94 13.03 -100.88 13.06 -99.79 13.09 C-71.94 13.87 -44.12 14.13 -16.25 14.07 C-11.23 14.06 -6.21 14.05 -1.18 14.05 C8.55 14.04 18.27 14.02 28 14 C26.43 13.37 24.85 12.74 23.28 12.1 C22.4 11.75 21.52 11.4 20.62 11.04 C16.93 9.58 13.22 8.19 9.5 6.81 C2.27 4.13 2.27 4.13 0 3 C0 2.01 0 1.02 0 0 Z " fill="#C9AC88" transform="translate(755,761)"/>
<path d="M0 0 C2.69 9.48 4.68 18.04 4 28 C0.55 26.81 -1.56 25.82 -3.75 22.88 C-4.49 21.93 -5.24 20.98 -6 20 C-6.33 20 -6.66 20 -7 20 C-8.32 13.57 -9.25 7.57 -9 1 C-5.85 0.3 -3.27 0 0 0 Z " fill="#C8AE8E" transform="translate(381,256)"/>
<path d="M0 0 C1.48 0.25 2.96 0.53 4.44 0.81 C5.67 1.04 5.67 1.04 6.93 1.27 C7.62 1.51 8.3 1.75 9 2 C9.33 2.99 9.66 3.98 10 5 C13.47 4.5 13.47 4.5 17 4 C17.33 4.66 17.66 5.32 18 6 C20.33 6.37 22.66 6.7 25 7 C26.2 7.35 27.39 7.7 28.62 8.06 C31.65 8.9 33.9 9.09 37 9 C37.5 9.5 37.5 9.5 38 10 C38.76 10 39.53 10 40.31 10 C43 10 43 10 44.94 10.5 C47.65 11.16 50.22 11.06 53 11 C53 11.66 53 12.32 53 13 C47.06 14.55 41.74 13.42 35.81 12.38 C34.76 12.19 33.7 12.01 32.61 11.83 C20.86 9.74 9.3 6.88 -2 3 C-1.34 2.67 -0.68 2.34 0 2 C0 1.34 0 0.68 0 0 Z " fill="#BC9F7C" transform="translate(563,760)"/>
<path d="M0 0 C3.3 0.33 6.6 0.66 10 1 C10 4.96 10 8.92 10 13 C9.01 13.33 8.02 13.66 7 14 C7 13.34 7 12.68 7 12 C4.69 12.33 2.38 12.66 0 13 C-0.2 11.4 -0.38 9.79 -0.56 8.19 C-0.72 6.85 -0.72 6.85 -0.88 5.48 C-1 3 -1 3 0 0 Z " fill="#BFA687" transform="translate(476,256)"/>
<path d="M0 0 C0.78 0.45 1.56 0.9 2.36 1.36 C9.73 5.6 17.13 9.76 24.56 13.88 C25.42 14.35 26.28 14.83 27.16 15.32 C31.03 17.45 34.82 19.51 39 21 C38.5 22.49 38.5 22.49 38 24 C5.48 7.93 5.48 7.93 0 3 C0 2.01 0 1.02 0 0 Z " fill="#C4A884" transform="translate(715,739)"/>
<path d="M0 0 C5.38 0.27 10.6 -0.12 15.94 -0.77 C20.79 -1.31 25.22 -0.91 30 0 C30 0.66 30 1.32 30 2 C25.38 2.99 20.76 3.98 16 5 C15.67 4.34 15.34 3.68 15 3 C14.38 3.01 13.77 3.01 13.14 3.02 C10.34 3.04 7.55 3.05 4.75 3.06 C3.3 3.08 3.3 3.08 1.82 3.09 C0.88 3.09 -0.05 3.09 -1.02 3.1 C-1.87 3.1 -2.73 3.11 -3.62 3.11 C-5.89 3.01 -7.83 2.64 -10 2 C-10 1.34 -10 0.68 -10 0 C-6.24 -1.25 -3.92 -0.57 0 0 Z " fill="#CCAE89" transform="translate(659,765)"/>
<path d="M0 0 C3.96 1.98 3.96 1.98 8 4 C8 4.66 8 5.32 8 6 C9.45 6.09 9.45 6.09 10.94 6.19 C15.14 6.77 18.24 8.65 21.84 10.79 C24.46 12.26 27.12 13.19 30 14 C29.67 14.66 29.34 15.32 29 16 C22.44 13.97 16.22 11.47 10 8.56 C9.14 8.18 8.29 7.8 7.4 7.4 C6.59 7.02 5.78 6.65 4.94 6.25 C4.2 5.92 3.47 5.58 2.71 5.23 C1 4 1 4 0 0 Z " fill="#C2A583" transform="translate(531,746)"/>
<path d="M0 0 C1.34 0.95 2.67 1.91 4 2.88 C5.11 3.68 5.11 3.68 6.25 4.49 C6.83 4.99 7.4 5.49 8 6 C8 6.66 8 7.32 8 8 C8.7 8.25 9.4 8.5 10.12 8.75 C13.4 10.17 16.14 11.87 19 14 C19 14.66 19 15.32 19 16 C19.99 16.33 20.98 16.66 22 17 C21.67 17.99 21.34 18.98 21 20 C4.28 7.78 4.28 7.78 0 3 C0 2.01 0 1.02 0 0 Z " fill="#CBB290" transform="translate(495,720)"/>
<path d="M0 0 C3.54 0.54 3.54 0.54 5 2 C5.19 4.44 5.19 4.44 5 7 C4.34 7.66 3.68 8.32 3 9 C1.68 9 0.36 9 -1 9 C-1.62 5.62 -1.62 5.62 -2 2 C-1.34 1.34 -0.68 0.68 0 0 Z " fill="#E6E6E6" transform="translate(459,437)"/>
<path d="M0 0 C1.68 0.29 3.34 0.62 5 1 C5 2.98 5 4.96 5 7 C3.02 7.99 3.02 7.99 1 9 C-1 7 -1 7 -1.19 3.94 C-1 1 -1 1 0 0 Z " fill="#E8E8E8" transform="translate(369,437)"/>
<path d="M0 0 C0.5 0.38 0.99 0.75 1.5 1.14 C5.96 4.49 10.45 7.78 15 11 C14.67 11.99 14.34 12.98 14 14 C11.87 12.4 9.75 10.8 7.62 9.19 C7.02 8.74 6.42 8.28 5.8 7.82 C3 5.69 0.97 3.95 -1 1 C-0.67 0.67 -0.34 0.34 0 0 Z " fill="#CDB490" transform="translate(689,720)"/>
<path d="M0 0 C0.66 0.99 1.32 1.98 2 3 C-3.08 3.85 -7.85 4.09 -13 4 C-10.51 1.51 -9.39 1.67 -5.94 1.44 C-2.66 1.46 -2.66 1.46 0 0 Z " fill="#B59672" transform="translate(632,771)"/>
<path d="M0 0 C0.54 0.39 1.07 0.78 1.62 1.19 C0.63 1.68 0.63 1.68 -0.38 2.19 C-0.71 3.18 -1.03 4.17 -1.38 5.19 C-4.31 4.81 -4.31 4.81 -7.38 4.19 C-7.71 3.53 -8.03 2.87 -8.38 2.19 C-2.96 -1.01 -2.96 -1.01 0 0 Z " fill="#D3B691" transform="translate(614.375,754.8125)"/>
<path d="M0 0 C2.97 1.98 5.94 3.96 9 6 C8.67 6.99 8.34 7.98 8 9 C6.66 8.07 5.33 7.13 4 6.19 C3.26 5.67 2.51 5.14 1.75 4.61 C1.17 4.08 0.6 3.55 0 3 C0 2.01 0 1.02 0 0 Z " fill="#CCB18C" transform="translate(705,732)"/>
<path d="M0 0 C3.47 1.98 3.47 1.98 7 4 C6.67 4.66 6.34 5.32 6 6 C3.98 5.4 1.98 4.73 0 4 C-0.33 3.34 -0.66 2.68 -1 2 C-0.67 1.34 -0.34 0.68 0 0 Z " fill="#CBAE89" transform="translate(707,751)"/>
</svg>
