<svg xmlns="http://www.w3.org/2000/svg" width="860" height="860" viewBox="305 64 860 860"><path fill="#232527" d="M503.4 202.8A30 30 0 0 1 514 221c.9 10.7-.5 18-7.4 26.3-3 3.2-5.8 5.6-9.6 7.7h-3v2.2q0 16.7-.9 33.3l-.7 20.8a921 921 0 0 1-1.5 31.7c0 3.4 0 5.8 1.1 9 3.3 3 7 5 11 7q3.3 2.5 6.3 5.5l2.8 2.7 2.9 2.8 1.7 1.6c28.5 27.6 39.4 70.5 48.8 107.6A528 528 0 0 0 593 563q-.6-9-1.8-17.7c-1.6-12-1.5-24.1-1.2-36.3v-4a249 249 0 0 1 31-106l1-2a260 260 0 0 1 43-58l2-2c7.6-7.9 15.3-15.3 24-22l2.9-2.3C745 272 809.4 254 874 255h2.3c57.2.8 116.7 27.5 158.4 66l6.3 5.4a183 183 0 0 1 25 27 253 253 0 0 1 56.4 161.6v9.5a227 227 0 0 1-13.7 78.8c-9.5 30.2-25 58-44.7 82.7l-2.1 2.7q-7 8.7-14.6 16.7l-1.9 2q-4.1 4.5-8.8 8.5c-2.6 1.8-2.6 1.8-3.6 4.1l2.1.4q4.7 1 9.1 2.7l3.7 1.2 2 .7c18 6.2 36.2 10.9 54.7 15.1 26.6 6.1 26.6 6.1 34.4 13.9.7 4.6.5 8-1.6 12.2-39.1 38.7-160.9 23.4-212.7 23.3h-28.6l-100.2-.1h-82.6l-36.4-.1c-67.3 0-67.3 0-95.9-8.3l-3.8-1a215 215 0 0 1-113.5-72.5c-32-38.8-53.3-83.4-71.3-130L391 574l-.8-2a15 15 0 0 0-7.6-8.7A110 110 0 0 1 335 490l-.5-2.5c-1.7-8.8-1.9-17.4-1.9-26.4v-2.3c.2-35.1 11.3-67.5 36.4-92.8l2.7-2c2.5-1.8 2.5-1.8 2.9-4.7l-.2-3.4v-4l-.6-8a293 293 0 0 0-3.3-33.2q-.9-5-1.4-10.1-1.7-13.6-3.7-27.1l-1.6-10.8-.5-3.4-.3-2.3-3.2-.3c-7-1.3-12.5-5.7-16.8-11.3a39 39 0 0 1-5-26.4 35 35 0 0 1 16.4-20 38 38 0 0 1 24.3-1.3c9.1 3.6 15.5 10.4 19.3 19.3a33 33 0 0 1-.7 22l-2.3 4-1 1.8c-2.6 4-2.6 4-5 5.2a559 559 0 0 0 4.2 21.4l.6 3q4.6 20.8 10 41.4l2.5 10.7.8 3.3.8 3 .6 2.7q.7 3.8.5 7.5l2-.6 2.6-.8 2.6-.9A58 58 0 0 1 432 339h19.3c2.8.1 2.8.1 4.8 1.1l.2-2 1.2-8.7.4-3q.9-7.5 2.2-15 1.8-11.7 3-23.5l.8-6.7.4-4.4 1.5-11.5q0-1.2.3-2.3l.7-4.5c.5-4 .5-4-1-7.5-1.7-1.3-1.7-1.3-3.7-2.5-4.5-3.2-7.3-9.6-8.6-15a34 34 0 0 1 6.2-25.7c11.2-13.9 29.6-14.7 43.8-5"/><circle cx="858.5" cy="519.5" r="197" fill="#191d20"/><path fill="#f1dcbb" d="m476 256 10 1v5.3l.1 2.9q0 4.5-.6 9-1 12.6-1 25.1l-.1 2.6-.4 19.1v2.8l-.3 21A81 81 0 0 0 487 372l2-10c28.6 14.6 44.6 46.2 54.2 75.4l5 16 1 3.3a153 153 0 0 1 4.4 17.2q.9 4.1 2.4 8.1l1.3 5c14.7 57.3 36.6 115.3 70.7 164l2.3 3.3a380 380 0 0 0 22.9 29.5A204 204 0 0 0 690 720l3.3 2.6A313 313 0 0 0 734 750l3.4 2c19.1 10.7 41 20 62.6 24v1h-99.7l-11.4.1c-48.9.1-48.9.1-72-2.4q-2 0-3.8-.3a213 213 0 0 1-146.2-81A345 345 0 0 1 424 625l-1.3-2.5A500 500 0 0 1 407 587l-.8-2.2-2.5-6-1.5-3.6a45 45 0 0 1-2.1-9.3h3l-1.6-1c-30.1-20-49.3-43.2-56.6-79l-.8-4-.6-3.1q-.7-9-.6-18V457c0-30.4 10.4-61.1 31.8-83.2A93 93 0 0 1 455 349l1 15h2l1.4-4 .8-2.2c2.4-8 3.6-15.9 4.7-24.1l3.7-24.9q1.7-10.5 2.9-21.1l2-17.6.4-3.2.4-3 .3-2.6c.4-2.3.4-2.3 1.4-5.3"/><path fill="#bcdc7f" d="m770.9 434.8 6 3.6 2.2 1.5q13.2 8.4 26.1 17.2 11 7.4 22 14.5l26 17.1 3 2 7.8 5.3 2.2 1.5c2.9 2 4.8 3.5 6.8 6.5.3 2.7.3 2.7.4 5.9v3c-.6 4.6-3.1 7.1-6.7 9.9l-2.6 1.6-2.9 1.9-3 1.9-6.3 4-3 2-10.9 7.1-1.8 1.2-3.4 2.3-13.2 8.8-6.7 4.5-2.9 1.9-9.4 6.3-1.9 1.2-3.7 2.5-10.9 7.3-2.5 1.6-4.8 3.3-2.2 1.4-2 1.3c-4.5 3-9.3 2.8-14.6 2.1-3.5-2.6-5.3-5-7-9-.5-3.3 0-5.9 1-9 5.8-6.7 13.8-11.4 21.1-16.2l7.2-4.7 1.9-1.2 29.8-20.2 1.8-1.2 14.7-9.8q2.4-1.6 4.7-3.4c1.8-1.3 1.8-1.3 3.8-1.3-2.8-3.2-6.4-5.4-10-7.7l-2.1-1.4-4.5-3-12-7.7-2.4-1.6a2687 2687 0 0 1-39.3-26l-2.5-1.6-4.3-2.7c-4.1-2.6-7.2-4.7-8.5-9.5-.4-3.7-.7-6.1.8-9.6 5.4-6.6 10.4-9 18.7-5.4"/><path fill="#b79a77" d="m1032.7 728.4 10 4 3.3 1.4q5.6 2.2 11.4 3.8l2 .6 6.6 1.8 2.7.8a946 946 0 0 0 32 8.3l4.3 1 8.6 2 4 1 3.4.8c3.3 1.2 4.8 2.5 7 5.1a66 66 0 0 1-19.9 7.1c-25.9 5.7-52.7 7.3-79.1 8.9l-2.7.2c-34 2-68.1 2-102.3 1.8 2.6-1.7 4-2.4 7-3.2l2.4-.7 2.5-.7Q960.5 765 983 753l2-1q14.1-7.6 27-17.1l2-1.4c2-1.5 2-1.5 3.9-3.3 5.2-5 8.3-4.4 14.8-1.8"/><path fill="#bcdc7e" d="M892.9 583.8h27.9l15-.1h27.3c4.5 0 7.3.5 10.9 3.3 2.9 3.5 3.5 6.5 3.3 11-.7 4.3-3 7-6.4 9.6a23 23 0 0 1-10.9 1.8h-41.7l-11.3.1H892c-5 0-8-1.3-11.9-4.5-3-4.5-2.8-8.8-2-14 3.5-6.7 8-7.2 14.9-7.2"/><path fill="#e0c5a1" d="M1040 733a176 176 0 0 1 16.4 4.2 790 790 0 0 0 55.4 14.5l3.6.8 3.1.7c2.5.8 2.5.8 4.5 2.8l-3 .5-4.3.8q-1.2 0-2.3.4-7 1.2-14 2.8c-72 16.2-72 16.2-91.4 6.5h-7c2.8-4 5.4-7.7 9-11l2 1 2-4h2l1-3c5.9-4 12.5-6.4 19-9l3-1.2 7-2.8-6-3z"/><path fill="#f8e9d1" d="M377.5 207a26 26 0 0 1 12.5 15c.7 6.3 0 12.4-3 18a24 24 0 0 1-16.3 9.2c-6.1.4-10.7-.6-15.7-4.2-5.8-5.3-8-10.5-8.4-18.4.2-5.3 1-9.4 4.4-13.6 7.4-6.8 16.6-9.7 26.5-6M495.3 208.3q6.7 4.3 9.7 11.7c1 8.7 0 15.3-5.4 22.3-4.9 5-9 6.4-16 7a21 21 0 0 1-16-7.8c-4.8-5.6-5-10-4.9-17.2a21 21 0 0 1 7-14.1c8.3-5.5 16.7-7.1 25.6-2"/><path fill="#f3e3c8" d="M381 256q3 12 5.8 24.1l5.8 25.3.8 3.8q2.3 10 5 20.2a136 136 0 0 1 3.1 15c-.6 3.1-1.2 3.4-3.7 5l-6.3 3.6c-5.2 3-5.2 3-7.5 3l-.2-2a962 962 0 0 0-10.6-81.7c-1-5.2-1.4-10-1.2-15.3 3.1-.7 5.7-1 9-1"/><path fill="#181c1f" d="M468 430q7.1 3.9 9.6 11.5a34 34 0 0 1-3.2 24.6c-2.4 3.2-4.3 4.6-8.3 5.2-3.7.2-5.7 0-9-2-6.2-6.7-6.5-14-6.5-23a23 23 0 0 1 7.8-15.4c3.6-1.2 5.8-1.5 9.6-.9"/><path fill="#1a1e21" d="M373.5 430c4.2 1.2 5.8 2.6 8.5 6 2.5 4.6 2.4 9.2 2.4 14.3v2.5c0 6.8-1.6 12.1-6.2 17.2a13 13 0 0 1-9.2 1 24 24 0 0 1-8-12c-.8-8.9-1.4-17.5 4-25 3-3.3 4-4 8.5-4"/><path fill="#191c1e" d="M398 492c3.6.4 5.5 2 8.1 4.5 4.3 4 6.6 4.9 12.4 4.8 5.5-.6 9.4-3 13-7l1.5-2.3c3.9.9 3.9.9 5 2 0 3.9-.1 6-2.6 9-6.7 6-12.4 7.6-21.3 7.4a24 24 0 0 1-16.3-8.9c-1.8-3.5-1.8-3.5-1.7-6.4.9-2.1.9-2.1 1.9-3.1"/><path fill="#dbc4a3" d="M386 228h2c1.5 7 1.5 7-.6 11.2-4.8 5.6-9.2 9.2-16.7 10-6.1.3-10.7-.6-15.7-4.2-3.4-3.2-6.5-6.2-7-11l2-2 3 2.4c5.7 4 11.6 5.2 18.5 5 6.5-1.1 10.7-6.4 14.5-11.4"/><path fill="#dac2a1" d="M502 228h2c1.3 3 1 4.2-.1 7.4-2.6 5.5-6.2 10-11.9 12.6q-10.4 3-20-2c-2.8-2.2-3.8-3.3-4.7-6.7l-.3-2.3 3-2 5.6 2.3a30 30 0 0 0 17.2-.4c3.5-2 5.5-4.3 8-7.5z"/><path fill="#c9ac88" d="m755 761 1.9.7A407 407 0 0 0 800 776v1H698.5l-11.6.1H670q-9.5.1-19-1.1l1-2h3.2a2769 2769 0 0 0 98.6 1H783l-4.7-1.9-13.8-5.3c-7.2-2.7-7.2-2.7-9.5-3.8z"/><path fill="#c8ae8e" d="M381 256a79 79 0 0 1 4 28c-3.4-1.2-5.6-2.2-7.7-5.1L375 276h-1a78 78 0 0 1-2-19c3.1-.7 5.7-1 9-1"/><path fill="#bc9f7c" d="m563 760 4.4.8 2.5.5 2.1.7 1 3 7-1 1 2 7 1 3.6 1c3 .9 5.3 1 8.4 1l1 1h2.3c2.7 0 2.7 0 4.6.5 2.8.7 5.3.6 8.1.5v2c-6 1.5-11.3.4-17.2-.6l-3.2-.6q-17.6-3-34.6-8.8l2-1z"/><path fill="#bfa687" d="m476 256 10 1v12l-3 1v-2l-7 1-.6-4.8-.3-2.7c-.1-2.5-.1-2.5.9-5.5"/><path fill="#c4a884" d="m715 739 24.6 13.9 2.6 1.4A81 81 0 0 0 754 760l-1 3c-32.5-16-32.5-16-38-21z"/><path fill="#ccae89" d="M659 765q8 .3 16-.8 7-.7 14 .8v2l-14 3-1-2h-13.2l-2.8.1h-2.6q-3.3-.1-6.4-1.1v-2c3.8-1.2 6-.6 10 0"/><path fill="#c2a583" d="m531 746 8 4v2l3 .2c4.1.6 7.2 2.4 10.8 4.6q4 2.1 8.2 3.2l-1 2a147 147 0 0 1-21.6-8.6l-2.5-1.1-2.2-1C532 750 532 750 531 746"/><path fill="#cbb290" d="m495 720 4 2.9 2.3 1.6 1.7 1.5v2l2.1.8q4.8 2 8.9 5.2v2l3 1-1 3c-16.7-12.2-16.7-12.2-21-17z"/><path fill="#e6e6e6" d="M459 437c3.5.5 3.5.5 5 2 .2 2.4.2 2.4 0 5l-2 2h-4c-.6-3.4-.6-3.4-1-7z"/><path fill="#e8e8e8" d="m369 437 5 1v6l-4 2c-2-2-2-2-2.2-5 .2-3 .2-3 1.2-4"/><path fill="#cdb490" d="m689 720 1.5 1.1L704 731l-1 3-6.4-4.8-1.8-1.4a27 27 0 0 1-6.8-6.8z"/><path fill="#b59672" d="m632 771 2 3q-7.4 1.2-15 1c2.5-2.5 3.6-2.3 7-2.6 3.3 0 3.3 0 6-1.4"/><path fill="#d3b691" d="m614.4 754.8 1.6 1.2-2 1-1 3-6-1-1-2c5.4-3.2 5.4-3.2 8.4-2.2"/><path fill="#ccb18c" d="m705 732 9 6-1 3-4-2.8-2.2-1.6-1.8-1.6z"/><path fill="#cbae89" d="m707 751 7 4-1 2-6-2-1-2z"/></svg>